HIERARCHY
ROOT pelvis
{
  OFFSET 0 100 0
  CHANNELS 6 Xposition Yposition Zposition Zrotation Xrotation Yrotation
  JOINT pelvis_right_femur
  {
    OFFSET -10.78128 -3.44521 -0.5502486
    CHANNELS 3 Zrotation Xrotation Yrotation
    JOINT right_femur_tibia
    {
      OFFSET -0.8047443 -44.0398 -0.1307829
      CHANNELS 3 Zrotation Xrotation Yrotation
      JOINT right_tibia_foot
      {
        OFFSET 3.006224 -47.83518 -5
        CHANNELS 3 Zrotation Xrotation Yrotation
        End Site
        {
          OFFSET 0 -5 15
        }
      }
    }
  }
  JOINT pelvis_left_femur
  {
    OFFSET 10.78128 -3.44521 -0.5502486
    CHANNELS 3 Zrotation Xrotation Yrotation
    JOINT left_femur_tibia
    {
      OFFSET 0.8047443 -44.0398 -0.1307829
      CHANNELS 3 Zrotation Xrotation Yrotation
      JOINT left_tibia_foot
      {
        OFFSET -4.370144 -48.10324 -4.275266
        CHANNELS 3 Zrotation Xrotation Yrotation
        End Site
        {
          OFFSET 0 -5 15
        }
      }
    }
  }
  JOINT pelvis_spine1
  {
    OFFSET 0 6.468898 -3.129235
    CHANNELS 3 Zrotation Xrotation Yrotation
    JOINT spine1
    {
      OFFSET 0 23.15396 4.99043
      CHANNELS 3 Zrotation Xrotation Yrotation
      JOINT spine2
      {
        OFFSET 0 20.79997 -5.064912
        CHANNELS 3 Zrotation Xrotation Yrotation
        JOINT neck
        {
          OFFSET 0 14.38658 9.616178
          CHANNELS 3 Zrotation Xrotation Yrotation
          End Site
          {
            OFFSET 0 20 0
          }
        }
      }
      JOINT right_manubrium
      {
        OFFSET -5.722621 16.35077 3.967754
        CHANNELS 3 Zrotation Xrotation Yrotation
        JOINT right_clavicle
        {
          OFFSET -13.16364 1.694482 -4.693211
          CHANNELS 3 Zrotation Xrotation Yrotation
          JOINT right_humerus
          {
            OFFSET -28.5034 -0.3100689 -2.792744
            CHANNELS 3 Zrotation Xrotation Yrotation
            JOINT right_radius
            {
              OFFSET -25.15693 0.02248979 -1.271978
              CHANNELS 3 Zrotation Xrotation Yrotation
              End Site
              {
                OFFSET -15 0 0
              }
            }
          }
        }
      }
      JOINT left_manubrium
      {
        OFFSET 5.722621 16.35077 3.967754
        CHANNELS 3 Zrotation Xrotation Yrotation
        JOINT left_clavicle
        {
          OFFSET 13.16364 1.694482 -4.693211
          CHANNELS 3 Zrotation Xrotation Yrotation
          JOINT left_humerus
          {
            OFFSET 29.39168 -1.063119 -2.237045
            CHANNELS 3 Zrotation Xrotation Yrotation
            JOINT left_radius
            {
              OFFSET 24.59957 -0.9528479 0.9047498
              CHANNELS 3 Zrotation Xrotation Yrotation
              End Site
              {
                OFFSET 15 -0 -0
              }
            }
          }
        }
      }
    }
  }
}
MOTION
Frames: 7
Frame Time: 0.0416666666667
0 103.5113 0 0.7627537 -0.9293366 0.05541159 3.278025 -15.80091 8.747072 -0 39.09574 -0 -6.537451 -15.84242 -2.85735 -7.261389 6.118771 -23.40234 -0 4.692286 -0 6.887916 -18.29776 26.38105 -1.184794 -2.426589 4.090503 2.856965 10.28098 -8.077713 0.6476579 21.40069 6.595874 4.297662 -26.15028 7.214701 4.196555 -20.43001 11.94042 88.05772 32.72655 -20.72127 -0 0 13.64654 -9.79859 7.888299 5.816998 6.054825 -22.83355 -3.04501 -94.60055 24.45834 24.13857 0 0 -16.49475 8.675542 17.88411 3.67651
0.3745571 103.4102 0.8741375 0.727208 -0.8525545 0.1204495 3.471318 -17.63791 8.749396 -0 39.10844 -0 -6.563352 -15.28173 -3.105754 -7.233203 7.896247 -23.4991 -0 5.584672 -0 6.797112 -18.72492 26.08061 -1.160453 -2.47566 3.911459 2.939747 10.34698 -8.259578 0.6229929 21.4043 6.617971 4.323266 -26.22483 7.212767 4.110598 -20.23852 11.93714 88.61959 32.55033 -21.45926 -0 0 13.0282 -9.653499 7.808893 5.594668 6.180278 -23.18791 -3.16644 -94.1586 24.28032 23.42378 0 0 -17.14291 9.226923 17.99652 2.983293
0.7027608 103.2996 2.171931 0.7154584 -1.096011 0.2932601 3.354685 -19.55933 8.014841 -0 38.89946 -0 -6.217777 -13.24726 -3.441321 -7.066952 9.98997 -22.62336 -0 6.279625 -0 5.992509 -19.28593 24.90258 -1.259534 -2.326818 3.811908 2.958638 10.13054 -8.32075 0.6593785 21.40284 6.707262 4.279544 -26.00952 7.328168 4.292705 -19.73805 11.84814 88.63833 32.90481 -21.75856 -0 0 12.64179 -9.72829 8.12138 5.574345 6.176701 -23.03084 -3.075629 -93.64428 24.8557 22.56888 0 0 -17.917 8.477121 17.65374 3.949085
0.9633898 103.0887 3.661841 0.5946757 -0.9229927 0.474543 3.58074 -21.71902 7.455785 -0 36.4403 -0 -6.437156 -12.48757 -3.544823 -6.799412 11.6846 -22.1398 -0 6.275313 -0 5.697513 -19.84427 24.11493 -1.300513 -2.273038 3.680552 3.006955 10.0402 -8.429351 0.6678479 21.40711 6.762479 4.270575 -25.94476 7.389156 4.353823 -19.40007 11.79928 88.89027 33.02301 -22.23093 -0 0 12.17841 -9.672233 8.227279 5.457635 6.230155 -23.09821 -3.074136 -93.20985 25.08541 21.83713 0 0 -18.57319 8.33477 17.54366 4.142065
1.153323 102.6887 5.467898 0.4374418 -0.7535576 0.6751061 3.764793 -23.99729 6.569103 -0 32.87236 -0 -6.699397 -11.4791 -3.593837 -6.427709 13.3571 -21.28715 -0 5.939997 -0 5.211589 -20.44825 23.00519 -1.372457 -2.173864 3.538588 3.05433 9.873554 -8.532825 0.6897273 21.41449 6.839851 4.249151 -25.82697 7.485385 4.480747 -18.94653 11.72345 89.08431 33.27592 -22.70397 -0 0 11.67988 -9.617668 8.40638 5.348954 6.269589 -23.076 -3.025566 -92.70205 25.51047 20.96401 0 0 -19.34751 7.928894 17.34119 4.67644
1.267309 102.0796 7.63671 0.2635758 -0.5899343 0.8962145 3.922061 -26.42656 5.570761 -0 28.91385 -0 -6.97498 -10.34525 -3.642576 -6.040546 15.13876 -20.30995 -0 5.665445 -0 4.622286 -21.06784 21.74375 -1.429576 -2.096947 3.415402 3.0974 9.737701 -8.622609 0.7065578 21.42265 6.902858 4.234364 -25.74343 7.564186 4.582194 -18.57511 11.66096 89.26495 33.47938 -23.11587 -0 0 11.25487 -9.548811 8.534948 5.246168 6.307111 -23.06969 -2.987228 -92.28541 25.85089 20.23961 0 0 -19.98407 7.628767 17.1921 5.074814
1.308823 101.2351 10.3053 0.08687736 -0.5362556 1.15241 3.94902 -28.79571 4.307198 -0 24.63351 -0 -7.16013 -8.801178 -3.706941 -5.639074 16.92175 -18.97579 -0 5.56402 -0 3.744139 -21.63493 20.15383 -1.49252 -2.010265 3.300948 3.135305 9.587006 -8.701228 0.7268033 21.43104 6.967883 4.215991 -25.64708 7.648241 4.698275 -18.19728 11.59406 89.40769 33.71212 -23.48762 -0 0 10.85943 -9.489643 8.679697 5.157505 6.33533 -23.03009 -2.935402 -91.87796 26.22767 19.52909 0 0 -20.60233 7.260275 17.01874 5.561635
